SplineFontDB: 3.0
FontName: MJ_Cal-Bold
FullName: MJ_Cal-Bold
FamilyName: MJ_Cal
Weight: Bold
Copyright: Copyright (c) 2009-2010 Design Science, Inc.
Version: 3.0
ItalicAngle: 0
UnderlinePosition: -100
UnderlineWidth: 50
Ascent: 800
Descent: 200
InvalidEm: 0
sfntRevision: 0x00030000
LayerCount: 2
Layer: 0 0 "Back" 1
Layer: 1 0 "Fore" 0
XUID: [1021 555 1361428464 29589]
StyleMap: 0x0020
FSType: 0
OS2Version: 3
OS2_WeightWidthSlopeOnly: 0
OS2_UseTypoMetrics: 0
CreationTime: 1255375311
ModificationTime: 1520407811
PfmFamily: 81
TTFWeight: 700
TTFWidth: 5
LineGap: 0
VLineGap: 0
Panose: 0 0 8 0 0 0 0 0 0 0
OS2TypoAscent: 840
OS2TypoAOffset: 0
OS2TypoDescent: -211
OS2TypoDOffset: 0
OS2TypoLinegap: 0
OS2WinAscent: 840
OS2WinAOffset: 0
OS2WinDescent: 211
OS2WinDOffset: 0
HheadAscent: 840
HheadAOffset: 0
HheadDescent: -211
HheadDOffset: 0
OS2SubXSize: 650
OS2SubYSize: 700
OS2SubXOff: 0
OS2SubYOff: 140
OS2SupXSize: 650
OS2SupYSize: 700
OS2SupXOff: 0
OS2SupYOff: 480
OS2StrikeYSize: 49
OS2StrikeYPos: 258
OS2CapHeight: 686
OS2Vendor: 'PfEd'
OS2CodePages: 2000008f.5e030000
OS2UnicodeRanges: 800000ef.1000eced.00000000.00000000
MarkAttachClasses: 1
DEI: 91125
LangName: 1033 "" "" "" "FontForge 2.0 : MJ_Cal-Bold" "" "Version 1.1" "" "" "" "" "" "" "" "Copyright (c) 2009-2010, Design Science, Inc. (<www.mathjax.org>),+AAoA-with Reserved Font Name MathJax_Caligraphic.+AAoACgAA-This Font Software is licensed under the SIL Open Font License, Version 1.1.+AAoA-This license available with a FAQ at:+AAoA-http://scripts.sil.org/OFL" "http://scripts.sil.org/OFL" "" "MJ_Cal" "Bold"
Encoding: UnicodeBmp
UnicodeInterp: none
NameList: AGL For New Fonts
DisplaySize: -48
AntiAlias: 1
FitToEm: 0
WinInfo: 38 38 12
BeginPrivate: 5
BlueValues 23 [-20 0 660 661 686 720]
BlueScale 7 0.03963
BlueShift 1 0
StdHW 4 [50]
StdVW 4 [50]
EndPrivate
BeginChars: 65537 42

StartChar: .notdef
Encoding: 65536 -1 0
Width: 250
Flags: MW
HStem: 0 50<100 150 100 200> 483 50<100 150 100 100>
VStem: 50 50<50 50 50 483> 150 50<50 483 483 483>
LayerCount: 2
Fore
SplineSet
50 0 m 1
 50 533 l 1
 200 533 l 1
 200 0 l 1
 50 0 l 1
100 50 m 1
 150 50 l 1
 150 483 l 1
 100 483 l 1
 100 50 l 1
EndSplineSet
EndChar

StartChar: zero
Encoding: 48 48 2
Width: 575
GlyphClass: 2
Flags: MW
HStem: -17 52<264 310 264 370> 409 51<263 279 279 289.5 259 301>
VStem: 46 139<209 243.5 209 288> 389 139<209 243.5>
LayerCount: 2
Fore
SplineSet
287 -17 m 0
 121 -17 46 53 46 219 c 0
 46 357 96 432 210 454 c 0
 222 457 245 460 259 460 c 2
 279 460 l 2
 300 460 328 460 337 459 c 0
 411 449 457 425 491 378 c 0
 517 338 528 290 528 219 c 0
 528 53 453 -17 287 -17 c 0
366 385 m 0
 346 403 322 409 280 409 c 0
 246 409 223 400 208 385 c 0
 192 370 188 356 186 297 c 0
 186 285 185 258 185 229 c 0
 185 189 186 144 187 131 c 0
 188 111 191 91 194 83 c 0
 203 51 241 35 287 35 c 0
 333 35 371 51 380 83 c 0
 383 91 386 111 387 131 c 0
 388 144 389 189 389 229 c 0
 389 258 388 285 388 297 c 0
 386 356 382 370 366 385 c 0
EndSplineSet
EndChar

StartChar: one
Encoding: 49 49 3
Width: 575
GlyphClass: 2
Flags: MW
HStem: 2 60<170 334.5> 355 62<95 119 119 130 93 119>
VStem: 229 131<62 213 213 254 62 278>
LayerCount: 2
Fore
SplineSet
80 386 m 0
 80 412 81 409 95 417 c 1
 119 417 l 2
 205 417 269 429 319 455 c 0
 331 461 332 461 338 461 c 0
 349 461 355 458 358 451 c 0
 360 447 360 439 360 254 c 2
 360 62 l 1
 420 62 l 2
 476 62 480 62 484 60 c 0
 493 55 494 51 494 35 c 2
 494 29 l 2
 494 9 493 0 473 0 c 0
 422 0 374 2 295 2 c 0
 216 2 169 0 117 0 c 0
 97 0 96 9 96 29 c 2
 96 35 l 2
 96 51 97 56 107 60 c 0
 110 62 114 62 170 62 c 2
 229 62 l 1
 229 213 l 2
 229 343 229 363 228 363 c 0
 225 362 195 358 181 357 c 0
 173 356 151 356 130 355 c 2
 93 355 l 1
 80 361 80 362 80 386 c 0
EndSplineSet
EndChar

StartChar: two
Encoding: 50 50 4
Width: 575
GlyphClass: 2
Flags: MW
HStem: 0 130<171.5 439> 399 61<210 226>
VStem: 64 106<338.5 394.5> 368 148<294.5 328> 454 63
LayerCount: 2
Fore
SplineSet
123 296 m 0xf0
 88 296 64 321 64 356 c 0
 64 375 69 391 78 403 c 0
 103 440 167 460 253 460 c 0
 279 460 313 460 325 459 c 0
 395 451 445 432 477 401 c 0
 500 380 516 354 516 310 c 0xf0
 516 266 501 248 470 227 c 0
 451 214 436 207 392 191 c 0
 377 185 360 178 354 176 c 0
 344 171 255 129 254 128 c 2
 254 128 414 129 428 130 c 2
 439 130 l 1
 445 140 449 150 454 169 c 0
 458 191 460 193 486 193 c 0
 501 193 503 193 507 191 c 0
 512 188 516 184 517 178 c 0xe8
 517 169 487 18 484 11 c 0
 482 6 480 4 476 2 c 0
 472 0 463 0 269 0 c 0
 74 0 65 0 62 2 c 0
 52 6 51 10 51 32 c 0
 51 51 52 55 56 58 c 0
 57 59 109 92 173 131 c 0
 308 214 315 219 335 239 c 0
 358 262 368 281 368 308 c 0
 368 348 340 376 288 390 c 0
 267 396 238 399 214 399 c 0
 204 399 170 397 170 392 c 2
 170 392 171 390 173 388 c 0
 179 379 182 367 182 355 c 0
 182 321 158 296 123 296 c 0xf0
EndSplineSet
EndChar

StartChar: three
Encoding: 51 51 5
Width: 575
GlyphClass: 2
Flags: MW
HStem: -211 59<250.5 293 250.5 317.5> 127 51 407 54<252.5 299>
VStem: 48 160<-56 -30> 80 146<287 314> 345 149<304.5 322.5 294 350.5> 364 161<-33 4 -41.5 14.5>
LayerCount: 2
Fore
SplineSet
177 377 m 1xe4
 205 366 226 346 226 310 c 0
 226 264 199 235 153 235 c 0
 107 235 80 264 80 309 c 0
 80 319 81 330 84 341 c 0
 102 410 176 461 276 461 c 0
 379 461 453 426 482 367 c 0
 490 350 494 332 494 313 c 0xec
 494 275 481 247 462 222 c 0
 443 196 409 171 373 155 c 2
 361 151 l 1
 376 147 l 2
 430 134 476 104 501 66 c 0
 518 42 525 23 525 -15 c 0
 525 -68 508 -103 481 -134 c 0
 439 -181 361 -211 274 -211 c 0
 166 -211 64 -161 49 -70 c 0
 48 -64 48 -59 48 -53 c 0
 48 -7 76 29 128 29 c 0
 176 29 208 -5 208 -50 c 0
 208 -74 198 -99 179 -113 c 0
 176 -116 170 -119 167 -121 c 0
 159 -125 159 -125 176 -133 c 0
 203 -146 233 -152 268 -152 c 0
 318 -152 344 -129 356 -92 c 0
 362 -75 364 -52 364 -14 c 0xf2
 364 43 358 69 341 92 c 0
 332 104 319 113 303 120 c 0
 290 124 281 125 240 125 c 0
 203 125 202 125 198 127 c 0
 192 131 191 134 191 152 c 0
 192 176 191 175 233 178 c 0
 266 180 269 181 279 185 c 0
 305 195 326 220 337 257 c 0
 344 277 345 289 345 320 c 0
 345 381 328 407 270 407 c 0
 235 407 204 394 177 377 c 1xe4
EndSplineSet
EndChar

StartChar: four
Encoding: 52 52 6
Width: 575
GlyphClass: 2
Flags: MW
HStem: -194 62<217 314 501 505> 0 62<121.5 325 215 314 451 489>
VStem: 314 137<-132 0 -132 0> 325 126<62 258>
LayerCount: 2
Fore
SplineSet
217 -194 m 1xe0
 203 -189 203 -187 203 -163 c 2
 203 -154 l 2
 203 -141 204 -139 212 -134 c 0
 217 -132 218 -132 265 -132 c 2
 314 -132 l 1
 314 0 l 1xe0
 180 0 l 2
 63 0 47 0 43 2 c 0
 38 4 36 6 34 11 c 0
 32 14 32 17 32 37 c 0
 32 56 32 59 34 63 c 0
 36 68 372 462 377 465 c 0
 378 466 381 468 383 468 c 0
 384 468 397 469 411 469 c 0
 431 469 437 469 440 467 c 0
 445 465 447 463 449 459 c 0
 451 455 451 447 451 258 c 2
 451 62 l 1xd0
 489 62 l 2
 524 62 528 62 532 60 c 0
 540 56 542 52 542 31 c 0
 542 10 540 6 532 2 c 0
 528 0 524 0 489 0 c 2
 451 0 l 1
 451 -132 l 1
 489 -132 l 2
 521 -132 528 -132 531 -134 c 0
 540 -138 542 -142 542 -163 c 0
 542 -186 540 -194 522 -194 c 0
 480 -194 444 -192 378 -192 c 0
 330 -192 281 -192 256 -193 c 2
 217 -194 l 1xe0
325 62 m 1xd0
 325 320 l 1
 105 63 l 1
 215 62 l 1
 325 62 l 1xd0
EndSplineSet
EndChar

StartChar: five
Encoding: 53 53 7
Width: 575
GlyphClass: 2
Flags: MW
HStem: -211 59<233.5 257 233.5 327> 166 51<269 300.5> 301 128<168 313 168 313>
VStem: 57 140<-48.5 -22.5> 100 68<279 301 182 371> 363 154<-24 43.5>
LayerCount: 2
Fore
SplineSet
458 461 m 0xec
 470 461 472 450 472 435 c 0
 472 427 472 420 470 418 c 0
 468 413 455 399 444 387 c 0
 395 338 331 308 261 299 c 0
 253 298 240 297 226 297 c 0
 204 297 180 299 171 301 c 2
 168 301 l 1
 168 182 l 2xec
 169 182 172 184 176 187 c 0
 206 205 246 217 292 217 c 0
 334 217 375 206 406 192 c 0
 470 159 517 95 517 5 c 0
 517 -135 399 -211 255 -211 c 0
 187 -211 139 -187 103 -152 c 0
 75 -123 57 -89 57 -44 c 0
 57 -1 84 29 131 29 c 1
 172 24 197 4 197 -41 c 0xf4
 197 -56 197 -58 195 -66 c 0
 188 -85 172 -102 153 -108 c 0
 151 -109 148 -110 148 -110 c 2
 147 -111 157 -121 166 -127 c 0
 189 -142 215 -152 252 -152 c 0
 262 -152 274 -152 280 -151 c 0
 309 -144 336 -130 348 -105 c 0
 360 -82 363 -57 363 9 c 0
 363 78 360 111 351 129 c 0
 341 150 315 166 286 166 c 0
 230 166 186 144 162 109 c 0
 151 94 150 93 130 93 c 0
 110 93 106 95 102 104 c 0
 100 107 100 115 100 279 c 2
 100 371 l 2
 100 465 101 455 107 459 c 0
 112 462 116 461 131 456 c 0
 173 440 233 429 286 429 c 0
 340 429 393 439 443 457 c 0
 450 459 457 461 458 461 c 0xec
EndSplineSet
EndChar

StartChar: six
Encoding: 54 54 8
Width: 575
GlyphClass: 2
Flags: MW
HStem: -17 58<273.5 295 273.5 311.5> 380 51<283 299> 607 53<322 339 339 347.5 322 355.5>
VStem: 48 148<194 365.5> 365 132<512.5 546> 379 147<190 230>
LayerCount: 2
Fore
SplineSet
405 593 m 1xf8
 399 596 387 603 381 603 c 0
 371 605 361 607 350 607 c 0
 289 607 242 573 221 533 c 0
 205 501 198 460 196 385 c 2
 195 370 l 1
 197 372 l 1
 224 407 253 431 313 431 c 0
 380 431 426 413 468 368 c 0
 506 330 526 282 526 208 c 0xf4
 526 154 515 115 492 81 c 0
 472 52 437 21 405 5 c 0
 376 -9 334 -17 289 -17 c 0
 235 -17 195 -3 161 19 c 0
 80 73 48 174 48 316 c 0
 48 415 68 485 113 546 c 0
 159 611 234 652 322 660 c 1
 339 660 l 2
 356 660 377 660 384 659 c 0
 450 644 497 607 497 532 c 0
 497 493 472 466 431 466 c 0
 389 466 365 495 365 530 c 0
 365 562 383 580 405 593 c 1xf8
357 359 m 0
 340 374 329 378 299 380 c 0
 266 380 256 374 240 358 c 0
 211 329 196 277 196 212 c 0
 196 176 199 128 202 110 c 0
 204 101 210 87 216 80 c 0
 231 56 255 41 292 41 c 0
 298 41 304 42 309 42 c 0
 329 45 343 51 355 62 c 0
 364 72 369 80 372 90 c 0
 378 111 379 150 379 230 c 0
 378 329 376 339 357 359 c 0
EndSplineSet
EndChar

StartChar: seven
Encoding: 55 55 9
Width: 575
GlyphClass: 2
Flags: MW
HStem: 307 141<213 400 213 293> 456 20G<121 140>
VStem: 189 132<-139 -104>
LayerCount: 2
Fore
SplineSet
162 458 m 0
 162 450 183 450 213 448 c 0
 228 448 249 446 260 446 c 0
 271 445 332 445 410 444 c 0
 493 444 543 444 545 443 c 0
 557 441 558 430 558 413 c 0
 558 404 558 395 556 393 c 0
 555 391 520 349 478 301 c 2
 392 202 l 1
 355 152 333 86 326 -3 c 0
 323 -35 322 -55 321 -104 c 0
 321 -148 321 -154 319 -162 c 0
 313 -188 287 -211 255 -211 c 0
 222 -211 197 -188 190 -160 c 0
 189 -153 189 -148 189 -130 c 0
 192 -33 223 63 282 156 c 0
 303 190 323 216 370 270 c 0
 399 302 402 307 400 307 c 2
 293 307 l 2
 193 306 150 305 146 303 c 0
 142 301 134 275 129 242 c 0
 125 222 124 218 120 215 c 0
 116 211 112 210 95 210 c 0
 80 210 78 210 74 212 c 0
 69 215 65 219 64 225 c 0
 64 229 99 459 102 465 c 0
 106 476 111 476 131 476 c 0
 149 476 153 475 157 470 c 0
 160 468 162 462 162 458 c 0
EndSplineSet
EndChar

StartChar: eight
Encoding: 56 56 10
Width: 575
GlyphClass: 2
Flags: MW
HStem: -17 59<265 329.5 248 351.5> 607 54<285 319.5>
VStem: 48 100<122 177> 80 88<459.5 540> 406 88<490 539.5> 425 101<134 141 141 155.5>
LayerCount: 2
Fore
SplineSet
526 189 m 0xc4
 526 56 421 -17 282 -17 c 0
 248 -17 223 -13 196 -7 c 0
 101 16 48 77 48 164 c 0xe4
 48 190 54 216 65 238 c 0
 84 275 117 304 163 329 c 1
 163 329 159 332 155 336 c 0
 140 345 120 368 110 382 c 0
 90 412 80 442 80 477 c 0
 80 516 90 549 110 581 c 0
 117 592 136 611 147 620 c 0
 175 640 207 653 246 658 c 0
 253 659 262 660 264 660 c 0
 270 660 280 661 290 661 c 0
 416 661 494 601 494 506 c 0
 494 452 467 408 414 376 c 1
 406 370 l 2xd8
 406 369 409 367 414 365 c 0
 483 327 526 260 526 189 c 0xc4
406 506 m 0xd8
 406 573 356 607 283 607 c 0
 224 606 185 590 173 560 c 0
 170 552 168 544 168 536 c 0
 168 512 183 497 199 486 c 0
 202 484 236 464 275 443 c 2
 346 403 l 1
 354 409 359 412 368 421 c 0
 394 445 406 474 406 506 c 0xd8
291 42 m 0
 368 42 425 69 425 134 c 2
 425 141 l 2
 425 170 405 191 384 204 c 0
 380 207 344 228 302 251 c 0
 261 274 226 293 225 294 c 0
 222 294 205 281 192 268 c 0
 166 242 148 208 148 163 c 0xe4
 148 81 205 42 291 42 c 0
EndSplineSet
EndChar

StartChar: nine
Encoding: 57 57 11
Width: 575
GlyphClass: 2
Flags: MW
HStem: -210 58<222.5 257.5 222.5 265.5> 17 52<228.5 298> 406 55<270 279 255.5 288.5>
VStem: 48 148<214.5 251.5 214.5 254> 77 132<-94 -62.5> 379 147<62 78 78 78>
LayerCount: 2
Fore
SplineSet
240 -210 m 0xf4
 147 -210 77 -172 77 -82 c 0
 77 -43 103 -15 143 -15 c 0
 183 -15 209 -43 209 -81 c 0xec
 209 -107 195 -127 175 -140 c 1
 190 -148 209 -152 236 -152 c 0
 279 -152 307 -140 332 -116 c 0
 364 -83 375 -45 379 62 c 1
 379 78 l 2
 378 78 376 75 373 71 c 0
 357 50 331 31 308 23 c 0
 292 18 283 17 262 17 c 0
 195 17 150 35 108 77 c 0
 66 119 48 160 48 235 c 0
 48 273 52 289 59 317 c 0
 77 371 126 418 177 441 c 0
 201 451 235 461 276 461 c 0
 282 461 288 460 295 460 c 0
 321 460 331 459 352 454 c 0
 402 441 443 413 470 373 c 0
 508 314 526 240 526 136 c 0
 526 -23 471 -129 365 -183 c 0
 329 -200 291 -210 240 -210 c 0xf4
312 405 m 0
 307 406 294 406 283 406 c 0
 257 406 236 398 224 387 c 0
 216 380 207 369 205 361 c 0
 201 352 199 337 197 317 c 0
 196 307 196 270 196 233 c 0xf4
 196 196 196 158 197 148 c 0
 199 116 202 107 212 95 c 0
 228 76 241 69 278 69 c 2
 298 69 l 1
 313 75 323 79 334 90 c 0
 355 111 369 144 376 190 c 0
 377 200 377 208 377 244 c 0
 377 286 376 314 373 334 c 0
 369 366 342 395 312 405 c 0
EndSplineSet
EndChar

StartChar: A
Encoding: 65 65 12
Width: 921
GlyphClass: 2
Flags: MW
HStem: -49 154<117 191> -26 102<761.5 866.5> 161 100<493 524 524 568 568 658 493 669> 731 20G<758.5 764.5>
VStem: 641 143<541 724.5 556 724.5>
LayerCount: 2
Fore
SplineSet
142 -49 m 0xb8
 92 -49 39 -7 39 55 c 0
 39 90 58 138 81 161 c 0
 89 168 96 173 103 174 c 0
 116 174 120 164 123 152 c 0
 128 126 158 105 190 105 c 0xb8
 192 105 195 105 197 106 c 0
 228 114 269 154 341 246 c 0
 447 380 522 493 606 643 c 1
 611 651 l 1
 640 651 l 1
 640 663 l 2
 640 674 641 675 644 682 c 0
 658 710 706 742 745 750 c 0
 749 750 756 751 761 751 c 0
 768 751 770 751 774 748 c 0
 777 747 780 744 782 742 c 0
 784 739 784 738 784 711 c 0
 784 547 800 289 820 191 c 0
 828 153 842 102 849 89 c 0
 852 83 858 76 865 76 c 0
 868 76 873 78 893 88 c 0
 930 107 942 111 962 112 c 2
 973 112 l 1
 981 108 989 105 989 94 c 0
 989 75 967 54 944 39 c 0
 932 31 864 -3 846 -11 c 0
 821 -21 803 -25 779 -26 c 0x78
 744 -26 717 -13 708 9 c 0
 696 32 676 116 669 161 c 1
 524 161 l 2
 445 161 379 162 379 162 c 1
 359 136 l 2
 290 47 247 3 206 -25 c 0
 181 -41 164 -49 142 -49 c 0xb8
448 253 m 1
 464 260 466 261 493 261 c 2
 568 261 l 1
 658 261 l 1
 658 266 l 1
 653 308 645 424 643 492 c 0
 642 510 642 532 641 541 c 2
 641 556 l 1
 557 415 l 2
 527 368 480 297 448 253 c 1
EndSplineSet
EndChar

StartChar: B
Encoding: 66 66 13
Width: 748
GlyphClass: 2
Flags: MW
HStem: -17 100<319.5 479.5> 683 20G<310.5 322.5>
VStem: 571 144 594 145
LayerCount: 2
Fore
SplineSet
571 195 m 0xe0
 571 292 484 333 386 333 c 0
 370 333 344 327 329 327 c 0
 317 327 307 334 307 345 c 0
 307 365 334 393 372 412 c 0
 380 416 395 422 419 430 c 0
 509 460 558 481 581 498 c 0
 590 505 594 516 594 535 c 0
 594 581 558 604 508 604 c 0
 487 604 459 596 442 583 c 0
 373 534 303 405 265 256 c 0
 245 180 221 121 186 60 c 0
 172 37 164 27 144 13 c 0
 119 -5 91 -16 68 -17 c 0
 51 -17 40 -13 40 1 c 0
 40 7 43 14 52 29 c 0
 86 86 106 138 124 210 c 0
 151 324 172 438 187 551 c 0
 189 564 190 575 190 575 c 2
 189 575 178 570 165 563 c 0
 134 547 117 542 98 542 c 0
 86 542 75 548 75 560 c 0
 75 576 94 600 123 618 c 0
 138 627 269 692 281 696 c 0
 294 701 305 703 316 703 c 0
 329 703 339 696 339 685 c 0
 339 677 331 610 328 583 c 1
 333 585 336 590 344 597 c 0
 415 657 495 693 576 703 c 0
 584 704 595 705 611 705 c 0
 644 704 655 702 681 689 c 0
 721 669 740 638 739 595 c 0xd0
 735 518 658 462 595 427 c 2
 584 421 l 1
 593 417 l 1
 659 394 711 346 715 268 c 0
 716 219 700 173 665 130 c 0
 656 118 630 92 617 82 c 0
 548 27 464 -7 378 -16 c 0
 370 -17 359 -17 348 -17 c 0
 291 -17 264 -11 225 10 c 0
 201 21 193 24 193 36 c 0
 193 46 200 58 214 72 c 0
 240 98 279 117 311 119 c 2
 322 119 l 1
 359 98 390 83 441 83 c 0
 518 83 571 114 571 195 c 0xe0
EndSplineSet
EndChar

StartChar: C
Encoding: 67 67 14
Width: 613
GlyphClass: 2
Flags: MW
HStem: -20 100<171.5 365.5> 603 100<378 501>
VStem: 20 144<147.5 291> 454 145<563.5 646.5>
LayerCount: 2
Fore
SplineSet
553 187 m 0
 571 187 580 183 580 168 c 0
 580 158 575 151 561 134 c 0
 535 105 498 74 462 51 c 0
 399 11 332 -13 268 -19 c 0
 261 -20 252 -20 243 -20 c 0
 100 -20 20 77 20 218 c 0
 20 235 21 255 23 268 c 0
 33 345 66 426 111 490 c 0
 192 600 317 687 488 702 c 0
 489 702 492 703 498 703 c 0
 504 703 511 702 518 702 c 0
 545 702 548 702 563 695 c 0
 587 683 599 662 599 631 c 0
 599 619 597 606 593 593 c 0
 586 567 555 504 541 486 c 0
 517 456 466 430 431 430 c 0
 425 430 423 430 419 433 c 0
 411 436 409 439 409 450 c 0
 410 456 410 457 419 474 c 0
 435 503 448 532 452 546 c 0
 454 552 454 560 454 567 c 0
 454 595 440 603 415 603 c 0
 341 603 295 579 254 532 c 0
 209 478 176 400 166 323 c 0
 165 313 164 298 164 284 c 0
 164 208 188 156 229 120 c 0
 256 97 293 80 340 80 c 0
 391 80 422 103 450 133 c 0
 477 161 508 184 553 187 c 0
EndSplineSet
EndChar

StartChar: D
Encoding: 68 68 15
Width: 892
GlyphClass: 2
Flags: MW
HStem: 0 100<107 197 107 197> 585 101<458.5 459.5>
VStem: 309 140<584.5 585> 741 144<419 458>
LayerCount: 2
Fore
SplineSet
107 0 m 1
 98 4 92 9 92 18 c 0
 92 22 93 26 95 31 c 0
 108 59 151 87 193 98 c 1
 197 100 l 1
 206 120 l 1
 264 267 299 417 308 565 c 0
 309 576 309 584 309 585 c 1
 257 585 191 569 179 557 c 0
 174 552 167 538 164 528 c 0
 161 518 161 516 156 509 c 0
 138 482 94 455 59 449 c 0
 53 448 48 447 43 447 c 0
 29 447 20 452 20 465 c 0
 20 468 21 473 22 478 c 0
 31 509 49 537 76 565 c 0
 103 591 137 615 173 632 c 0
 232 662 304 680 385 685 c 0
 395 685 437 686 480 686 c 0
 523 686 566 685 578 685 c 0
 745 675 885 616 885 450 c 0
 885 388 866 337 840 290 c 0
 804 228 747 171 673 123 c 0
 563 52 426 9 286 1 c 0
 276 0 231 0 187 0 c 2
 107 0 l 1
741 391 m 0
 741 525 622 574 481 584 c 0
 472 584 462 585 457 585 c 2
 449 586 l 1
 449 579 l 1
 433 426 394 275 328 122 c 0
 323 111 319 101 319 100 c 2
 324 100 l 2
 449 100 554 128 628 175 c 0
 677 208 713 257 729 314 c 0
 736 340 741 368 741 391 c 0
EndSplineSet
EndChar

StartChar: E
Encoding: 69 69 16
Width: 607
GlyphClass: 2
Flags: MW
HStem: -16 99<208 353> 516 187<493 497.5> 603 99<384 474>
VStem: 37 144<77 178> 150 145<429.5 532> 482 145<565.5 637>
LayerCount: 2
Fore
SplineSet
216 356 m 1xb4
 182 377 150 403 150 456 c 0
 150 497 171 542 210 582 c 0
 270 645 369 692 460 701 c 0
 466 702 472 702 474 702 c 0xac
 475 703 487 703 499 703 c 0
 537 703 569 700 583 694 c 0
 599 688 610 680 617 668 c 0
 624 658 626 650 627 637 c 0
 627 627 627 624 625 616 c 0
 613 570 565 528 512 518 c 0
 506 516 500 516 495 516 c 0xcc
 483 516 471 520 471 530 c 0
 471 540 482 561 482 570 c 0
 482 582 476 592 466 596 c 0
 455 599 424 603 401 603 c 0
 367 603 333 594 319 582 c 0
 307 570 295 545 295 519 c 0xac
 295 495 303 483 316 470 c 0
 342 442 402 427 455 427 c 0
 467 427 477 420 477 409 c 0
 477 405 476 401 473 395 c 0
 460 370 422 344 389 333 c 0
 376 329 369 328 344 326 c 0
 292 323 252 305 223 272 c 0
 203 249 187 217 182 189 c 0
 181 185 181 180 181 176 c 0
 181 111 256 83 324 83 c 0
 382 83 412 103 448 137 c 0
 462 151 472 159 487 167 c 0
 508 180 528 186 547 187 c 0
 564 187 574 183 574 170 c 0
 574 158 567 147 545 125 c 0
 479 59 380 1 271 -15 c 0
 260 -16 251 -16 226 -16 c 0
 190 -16 177 -15 152 -9 c 0
 92 7 37 43 37 111 c 0
 37 122 38 132 41 144 c 0
 58 214 109 281 185 335 c 0
 197 344 207 350 216 356 c 1xb4
EndSplineSet
EndChar

StartChar: F
Encoding: 70 70 17
Width: 814
GlyphClass: 2
Flags: MW
HStem: -30 102<142 229.5> -30 149<142 144 135 153> 268 116<658 684.5> 284 100<498 642 457 775> 568 113 586 99
LayerCount: 2
Fore
SplineSet
17 36 m 0x50
 17 71 89 116 135 119 c 0x50
 153 119 154 115 165 104 c 0
 183 86 201 76 227 72 c 0
 232 72 232 72 234 76 c 0
 245 93 286 172 304 212 c 0
 359 331 399 449 424 570 c 1
 428 586 l 1
 276 586 l 1
 259 569 222 551 190 551 c 0
 177 551 167 559 167 569 c 0
 167 575 173 589 179 598 c 0
 190 615 212 634 235 648 c 0
 274 671 315 683 371 685 c 0x84
 374 686 488 686 624 686 c 0
 878 685 876 685 895 681 c 0
 911 679 930 669 930 650 c 0
 930 647 929 644 928 641 c 0
 917 611 864 575 823 568 c 0x08
 809 566 802 567 796 570 c 0
 791 572 786 577 786 579 c 0
 786 585 745 586 690 586 c 2
 647 586 l 1
 559 586 l 1
 558 582 l 2
 558 580 556 574 555 570 c 0
 545 528 524 457 506 407 c 2
 498 384 l 1
 775 384 l 1x14
 784 380 789 377 790 368 c 0
 790 361 785 341 781 334 c 0
 760 300 704 268 665 268 c 0x20
 651 268 645 274 642 284 c 1
 457 284 l 1
 447 261 l 2
 422 206 377 120 360 94 c 0
 319 31 239 -21 170 -29 c 0
 165 -30 157 -30 149 -30 c 0
 135 -30 120 -29 113 -28 c 0
 80 -21 48 -4 26 20 c 0
 19 27 17 31 17 36 c 0x50
EndSplineSet
EndChar

StartChar: G
Encoding: 71 71 18
Width: 682
GlyphClass: 2
Flags: MW
HStem: -113 99<220.5 351> -113 115<187 262> 68 100<190.5 363> 602 101<408 560>
VStem: 50 144<217 354.5> 527 144<560.5 636.5>
LayerCount: 2
Fore
SplineSet
527 562 m 0xbc
 527 602 473 602 433 602 c 0
 383 602 333 590 302 569 c 0
 257 539 220 480 203 411 c 0
 197 388 194 365 194 344 c 0
 194 247 251 168 352 168 c 0
 374 168 398 175 415 185 c 0
 457 210 488 259 505 316 c 0
 520 357 581 390 622 393 c 0
 637 393 649 389 649 376 c 0
 649 370 625 277 612 237 c 0
 569 92 519 9 442 -49 c 0
 397 -82 346 -104 296 -112 c 0
 285 -113 278 -113 246 -113 c 0
 195 -113 157 -110 109 -102 c 0
 90 -99 86 -98 81 -96 c 0
 74 -92 71 -88 71 -81 c 0
 71 -71 77 -60 89 -47 c 0
 114 -21 155 -1 187 2 c 0x7c
 194 2 199 2 219 -2 c 0
 257 -8 296 -12 338 -14 c 0
 364 -14 372 -13 377 -9 c 0
 397 11 425 61 446 113 c 2
 451 127 l 1
 396 94 316 68 253 68 c 0
 128 68 50 155 50 279 c 0
 50 295 51 312 53 324 c 0
 73 455 157 568 287 639 c 0
 352 675 431 698 503 702 c 0
 506 702 519 703 532 703 c 0
 588 703 627 695 647 678 c 0
 663 665 671 647 671 626 c 0
 671 614 668 601 663 588 c 0
 653 566 623 523 599 498 c 0
 571 468 527 447 495 447 c 0
 481 447 472 454 472 465 c 0
 472 474 477 484 490 498 c 0
 507 517 523 543 526 553 c 0
 527 556 527 559 527 562 c 0xbc
EndSplineSet
EndChar

StartChar: H
Encoding: 72 72 19
Width: 987
GlyphClass: 2
Flags: MW
HStem: -48 101<670 788> 259 100<170 293> 269 90<633.5 634> 586 100<259.5 411>
VStem: 340 144<541 616> 593 144<20.5 105>
LayerCount: 2
Fore
SplineSet
42 447 m 0xbc
 30 447 20 454 20 465 c 0
 20 473 23 479 34 496 c 0
 102 597 218 674 367 685 c 0
 369 686 381 686 392 686 c 0
 430 686 446 678 464 662 c 0
 476 649 483 634 484 616 c 0
 484 606 483 583 479 552 c 0
 474 499 464 449 448 388 c 0
 444 373 441 360 441 360 c 2
 441 359 485 359 550 359 c 2xdc
 660 359 l 1
 663 370 l 2
 682 429 739 595 758 624 c 0
 775 652 834 686 870 686 c 0
 884 686 894 680 894 668 c 0
 894 664 892 659 883 636 c 0
 826 497 772 324 752 218 c 0
 744 174 737 117 737 93 c 0
 737 67 752 53 778 53 c 2
 788 53 l 2
 808 54 807 54 814 63 c 0
 837 93 889 120 924 120 c 0
 937 120 946 114 946 100 c 0
 943 67 909 35 885 14 c 0
 831 -25 766 -45 684 -48 c 0
 656 -48 651 -48 636 -40 c 0
 619 -31 611 -24 603 -10 c 0
 596 0 593 12 593 29 c 0
 593 124 634 269 634 269 c 2xbc
 633 269 629 268 624 266 c 0
 605 259 613 260 507 259 c 2
 411 259 l 1
 399 222 l 2
 378 161 365 124 340 64 c 0
 331 41 324 25 322 21 c 0
 316 13 304 0 294 -8 c 0
 266 -28 234 -41 209 -41 c 0
 195 -41 187 -35 185 -25 c 0
 185 -19 185 -19 201 22 c 0
 223 76 242 127 261 184 c 0
 270 212 284 257 284 258 c 0
 284 259 258 259 227 259 c 2
 170 259 l 1xdc
 162 264 155 267 155 277 c 0
 155 303 202 342 250 356 c 0
 259 358 261 358 286 359 c 0
 300 359 312 359 312 360 c 2
 312 360 314 372 318 385 c 0
 328 430 335 480 339 526 c 0
 339 533 340 539 340 543 c 0
 340 571 323 586 296 586 c 0
 223 586 197 571 161 517 c 0
 140 480 82 447 42 447 c 0xbc
EndSplineSet
EndChar

StartChar: I
Encoding: 73 73 20
Width: 642
GlyphClass: 2
Flags: MW
HStem: 0 100<142 198 142 216> 586 100<553 572 503 732>
LayerCount: 2
Fore
SplineSet
56 499 m 0
 42 499 32 504 32 516 c 0
 32 519 33 524 34 528 c 0
 39 543 45 555 56 570 c 0
 79 600 120 630 165 649 c 0
 218 672 279 683 365 685 c 0
 369 685 454 686 553 686 c 2
 732 686 l 1
 739 681 746 677 746 668 c 0
 746 662 743 656 738 648 c 0
 721 622 681 596 642 587 c 1
 572 586 l 1
 503 586 l 1
 496 575 483 551 476 530 c 0
 462 494 449 452 428 368 c 0
 397 244 364 167 318 111 c 2
 309 101 l 1
 412 100 l 1
 514 100 l 1
 523 109 l 2
 550 134 588 151 618 153 c 0
 635 153 644 147 644 135 c 0
 644 132 643 128 642 124 c 0
 625 73 553 21 476 6 c 0
 446 0 463 1 216 0 c 0
 -5 0 -11 0 -15 2 c 0
 -23 5 -27 11 -27 18 c 0
 -27 28 -19 41 -4 55 c 0
 12 71 36 86 59 93 c 0
 77 100 79 100 142 100 c 2
 198 100 l 1
 246 165 274 259 299 369 c 0
 326 470 350 530 382 574 c 2
 391 586 l 1
 348 586 l 2
 266 586 218 581 176 576 c 1
 165 549 132 519 91 506 c 0
 78 501 66 499 56 499 c 0
EndSplineSet
EndChar

StartChar: J
Encoding: 74 74 21
Width: 779
GlyphClass: 2
Flags: MW
HStem: -114 101<227.5 353.5> 586 100
VStem: 53 147<21.5 133.5>
LayerCount: 2
Fore
SplineSet
200 127 m 0
 200 117 196 105 196 96 c 0
 196 27 267 -13 345 -13 c 0
 362 -13 372 -12 386 -7 c 0
 419 3 448 32 468 73 c 0
 484 107 507 211 519 250 c 0
 564 412 611 509 675 576 c 2
 685 586 l 1
 634 586 l 2
 561 586 531 585 484 564 c 0
 447 546 422 516 408 474 c 0
 403 459 401 455 395 447 c 0
 372 417 321 390 286 390 c 0
 274 390 263 395 263 407 c 0
 263 412 265 419 268 430 c 0
 286 481 324 532 367 566 c 0
 421 611 488 647 557 667 c 0
 592 677 621 682 660 685 c 0
 662 686 722 686 793 686 c 2
 923 686 l 1
 930 681 937 677 937 668 c 0
 937 662 934 656 929 648 c 0
 913 624 875 599 842 589 c 0
 835 588 828 587 817 586 c 0
 798 585 794 584 788 578 c 0
 760 553 732 498 713 454 c 0
 687 392 664 320 632 189 c 0
 619 141 612 121 597 95 c 0
 556 24 488 -35 413 -72 c 0
 355 -100 312 -114 247 -114 c 0
 208 -114 184 -111 158 -100 c 0
 107 -81 74 -52 60 -14 c 0
 54 3 53 11 53 32 c 0
 53 68 58 82 79 102 c 0
 106 128 147 147 177 147 c 0
 192 147 200 140 200 127 c 0
EndSplineSet
EndChar

StartChar: K
Encoding: 75 75 22
Width: 871
GlyphClass: 2
Flags: MW
HStem: -16 86<634 638.5> 574 129<730 733>
VStem: 194 145<564 681.5 578 681.5> 309 114<393 440> 722 112
LayerCount: 2
Fore
SplineSet
98 542 m 0xe8
 86 542 75 548 75 560 c 0
 75 576 94 600 123 618 c 0
 134 625 263 690 275 694 c 0
 288 700 300 703 315 703 c 0
 324 703 325 703 330 700 c 0
 339 695 339 693 339 670 c 0
 339 608 331 535 317 471 c 0
 299 384 261 260 222 155 c 0
 210 122 186 62 181 53 c 0
 167 24 113 -14 68 -17 c 0
 52 -17 40 -13 40 0 c 0
 40 5 42 11 47 21 c 0
 93 131 133 250 162 366 c 0
 180 434 191 503 194 564 c 2
 194 578 l 1
 168 565 l 2
 134 547 117 542 98 542 c 0xe8
807 163 m 0
 824 163 834 155 834 142 c 0
 834 138 833 132 831 126 c 0
 806 47 701 -16 576 -16 c 0
 552 -16 550 -16 544 -14 c 0
 536 -11 520 -2 508 6 c 0
 489 19 461 50 439 81 c 0
 381 164 326 288 311 369 c 0
 309 377 309 388 309 398 c 0
 309 408 309 417 311 423 c 0
 316 440 328 460 347 482 c 0
 390 530 474 593 562 642 c 0
 620 675 673 696 710 702 c 0
 716 702 725 703 735 703 c 0
 762 703 775 701 791 690 c 0
 810 679 819 666 819 646 c 0
 819 605 768 577 733 574 c 2
 722 574 l 1
 711 580 704 585 704 599 c 0
 707 614 690 615 672 617 c 1
 660 613 l 2
 613 597 523 543 467 496 c 0
 449 481 429 463 423 450 c 1
 423 440 l 2xd8
 423 421 428 396 441 359 c 0
 470 273 518 181 565 122 c 0
 575 110 595 89 604 83 c 0
 616 74 628 70 640 70 c 0
 662 70 688 76 701 82 c 0
 713 87 716 91 722 108 c 0
 730 133 758 151 783 160 c 0
 789 162 799 163 807 163 c 0
EndSplineSet
EndChar

StartChar: L
Encoding: 76 76 23
Width: 788
GlyphClass: 2
Flags: MW
HStem: -16 106<456 583> 18 106<155 285 155 285> 496 206<573 573.5 573 577.5>
LayerCount: 2
Fore
SplineSet
63 -17 m 0x60
 51 -17 41 -11 41 0 c 0
 41 4 42 9 45 14 c 0
 52 27 63 38 85 54 c 0
 96 63 101 69 110 85 c 0
 125 112 136 145 153 212 c 0
 165 259 173 286 182 315 c 0
 214 413 256 493 306 553 c 0
 376 637 479 694 573 702 c 0
 574 702 577 703 582 703 c 0
 587 703 592 702 598 702 c 0
 655 702 689 667 689 613 c 0
 689 599 687 584 683 575 c 0
 672 544 603 496 552 496 c 0
 539 496 530 500 530 512 c 0
 530 518 533 530 533 538 c 0
 533 571 516 596 480 596 c 2
 473 596 l 2
 460 596 459 595 448 584 c 0
 435 572 427 561 415 544 c 0
 373 481 338 396 310 281 c 0
 291 209 279 172 261 136 c 2
 255 124 l 1
 285 124 l 2x60
 334 123 359 120 465 103 c 0
 512 96 550 91 583 90 c 2
 596 89 l 1
 604 122 676 173 729 173 c 0
 741 173 751 168 751 157 c 0
 751 154 750 150 749 146 c 0
 726 65 610 0 523 -15 c 0
 514 -16 506 -16 479 -16 c 0xa0
 433 -16 403 -13 338 -3 c 0
 242 12 213 16 171 18 c 2
 155 18 l 1
 142 10 l 2
 113 -8 85 -17 63 -17 c 0x60
EndSplineSet
EndChar

StartChar: M
Encoding: 77 77 24
Width: 1378
GlyphClass: 2
Flags: MW
HStem: 683 20G<463 497.5 1237 1245.5>
VStem: 1064 145<112.5 248.5>
LayerCount: 2
Fore
SplineSet
38 20 m 0
 38 69 74 139 104 139 c 0
 109 139 109 139 117 132 c 0
 132 118 152 109 176 106 c 0
 186 105 191 106 199 111 c 0
 218 125 244 176 286 281 c 0
 330 390 357 493 371 604 c 0
 373 618 375 631 376 634 c 0
 386 662 439 703 487 703 c 0
 508 703 509 696 514 678 c 0
 546 554 605 372 649 272 c 0
 660 249 683 203 686 202 c 0
 688 200 779 276 830 322 c 2
 1166 642 l 2
 1199 674 1223 698 1226 699 c 0
 1229 701 1233 702 1237 703 c 0
 1254 703 1258 684 1258 667 c 0
 1258 657 1256 644 1252 631 c 0
 1231 542 1209 295 1209 202 c 0
 1209 163 1210 142 1216 106 c 0
 1218 92 1222 77 1232 77 c 0
 1236 77 1243 81 1260 89 c 0
 1294 107 1306 111 1326 112 c 0
 1342 112 1353 106 1353 94 c 0
 1353 79 1344 72 1334 60 c 0
 1317 43 1306 36 1258 12 c 0
 1220 -7 1208 -12 1191 -17 c 0
 1175 -22 1165 -24 1150 -24 c 2
 1141 -24 l 2
 1123 -24 1122 -24 1116 -22 c 0
 1091 -12 1079 2 1074 26 c 0
 1067 60 1064 91 1064 134 c 0
 1064 210 1077 357 1086 426 c 0
 1087 430 1087 433 1087 434 c 2
 1061 410 l 2
 946 299 834 194 783 149 c 2
 694 76 l 2
 642 35 643 35 631 34 c 0
 624 34 623 34 618 36 c 0
 611 40 610 42 594 63 c 0
 562 105 535 151 514 198 c 0
 491 251 447 371 423 449 c 2
 418 466 l 1
 412 444 l 2
 388 354 353 258 306 153 c 0
 260 47 213 -19 169 -41 c 0
 155 -47 145 -49 131 -49 c 0
 94 -47 53 -25 42 -2 c 0
 39 4 38 11 38 20 c 0
EndSplineSet
EndChar

StartChar: N
Encoding: 78 78 25
Width: 937
GlyphClass: 2
Flags: MW
HStem: -49 154<57.5 127.5> 683 20G<366.5 400.5> 689 151
LayerCount: 2
Fore
SplineSet
47 139 m 1xa0
 63 123 87 105 122 105 c 0
 133 105 141 110 147 117 c 0
 157 131 175 175 197 245 c 0
 236 364 262 489 274 610 c 0
 275 631 277 637 284 647 c 0
 302 672 344 703 389 703 c 0xc0
 412 703 410 693 418 673 c 0
 456 560 513 418 567 298 c 0
 597 232 613 200 633 166 c 0
 645 145 669 108 673 103 c 0
 674 102 674 103 675 106 c 0
 711 248 763 427 803 551 c 0
 830 636 853 691 875 725 c 0
 903 767 949 804 1000 824 c 0
 1023 833 1054 840 1081 840 c 0
 1101 840 1105 825 1105 803 c 0
 1105 754 1074 700 1051 689 c 0
 1045 686 1043 686 1032 686 c 0
 988 683 946 667 914 640 c 0
 906 632 904 631 901 624 c 0
 892 604 877 559 855 488 c 0
 812 349 774 214 738 72 c 0
 730 39 726 28 726 28 c 2
 725 28 726 32 723 25 c 0
 714 -6 660 -48 611 -48 c 0
 601 -48 600 -48 596 -45 c 0
 590 -42 588 -39 576 -23 c 0
 540 22 508 71 480 124 c 0
 446 188 374 354 332 463 c 2
 328 473 l 1
 325 457 l 2
 302 345 263 219 227 124 c 0
 189 27 143 -33 97 -46 c 0
 90 -48 81 -49 72 -49 c 0
 43 -49 24 -40 5 -28 c 0
 -17 -13 -24 -2 -24 21 c 0
 -24 57 -6 103 18 127 c 0
 26 135 33 139 41 139 c 2
 47 139 l 1xa0
EndSplineSet
EndChar

StartChar: O
Encoding: 79 79 26
Width: 906
GlyphClass: 2
Flags: MW
HStem: -17 101<380.5 387.5> 603 100
VStem: 63 144<246.5 327.5> 737 145<400 529 438.5 459.5>
LayerCount: 2
Fore
SplineSet
737 405 m 2
 737 514 685 603 576 603 c 0
 562 603 552 600 543 593 c 0
 535 588 519 572 510 560 c 0
 494 541 476 511 464 485 c 0
 457 472 452 464 442 454 c 0
 415 429 378 411 346 409 c 0
 330 409 321 417 321 428 c 0
 321 431 321 433 322 436 c 0
 326 449 346 487 362 510 c 0
 428 611 532 683 635 700 c 0
 647 702 662 703 677 703 c 0
 694 703 711 702 723 699 c 0
 824 678 882 590 882 468 c 0
 882 409 867 346 840 292 c 0
 790 191 696 102 580 43 c 0
 503 4 432 -17 343 -17 c 0
 324 -17 304 -16 295 -15 c 0
 178 3 92 81 69 195 c 0
 65 215 63 236 63 257 c 0
 63 292 68 328 79 365 c 0
 115 491 222 611 363 681 c 0
 386 693 402 699 416 701 c 0
 419 702 427 703 432 703 c 0
 443 703 450 701 453 695 c 0
 457 690 457 681 453 673 c 0
 442 648 412 629 382 613 c 0
 340 593 306 565 276 524 c 0
 236 471 214 412 208 346 c 0
 208 339 207 331 207 324 c 0
 207 300 210 276 216 255 c 0
 240 156 320 84 441 84 c 0
 463 84 474 85 495 89 c 0
 629 115 737 241 737 400 c 2
 737 405 l 2
EndSplineSet
EndChar

StartChar: P
Encoding: 80 80 27
Width: 810
GlyphClass: 2
Flags: MW
HStem: 206 74<366 389.5 366 389.5> 585 101
VStem: 701 145<462.5 557>
LayerCount: 2
Fore
SplineSet
170 -67 m 0
 157 -67 147 -60 147 -49 c 0
 147 -43 147 -44 163 -5 c 0
 234 158 291 359 307 567 c 0
 308 577 309 585 308 585 c 0
 256 585 191 569 179 557 c 0
 174 552 167 538 164 528 c 0
 161 518 161 516 156 509 c 0
 138 482 94 455 59 449 c 0
 53 448 48 447 43 447 c 0
 29 447 20 452 20 465 c 0
 20 468 21 473 22 478 c 0
 31 509 49 537 76 565 c 0
 103 591 137 615 173 632 c 0
 232 662 304 680 385 685 c 0
 395 685 445 686 495 686 c 0
 633 686 708 684 784 637 c 0
 822 613 846 581 846 533 c 0
 846 517 843 499 838 482 c 0
 801 353 643 254 498 221 c 0
 457 212 412 206 378 206 c 2
 366 206 l 1
 358 181 l 2
 334 110 292 8 282 -7 c 0
 261 -34 208 -67 170 -67 c 0
638 554 m 0
 598 574 530 586 461 586 c 2
 448 586 l 1
 448 582 l 2
 447 579 446 568 444 556 c 0
 435 473 417 384 395 301 c 2
 389 280 l 2
 390 280 395 283 401 286 c 0
 424 299 435 304 469 306 c 0
 546 311 611 326 651 359 c 0
 674 379 692 411 700 445 c 0
 701 451 701 457 701 468 c 0
 701 480 701 483 699 490 c 0
 690 518 671 539 638 554 c 0
EndSplineSet
EndChar

StartChar: Q
Encoding: 81 81 28
Width: 939
GlyphClass: 2
Flags: MW
HStem: -146 100<619.5 738> -50 100 103 100<308 420> 103 119 602 101<496.5 604>
VStem: 120 144<238 360.5> 730 144<423 450>
LayerCount: 2
Fore
SplineSet
568 222 m 0x1e
 583 222 594 217 594 204 c 0
 594 192 588 182 571 166 c 0
 528 126 476 115 393 107 c 0
 369 105 340 103 316 103 c 0
 300 103 287 104 279 105 c 0
 189 121 120 186 120 290 c 0
 120 325 128 362 145 402 c 0
 177 480 247 558 332 612 c 0
 402 657 476 686 548 697 c 0
 561 700 579 703 601 703 c 0
 607 703 615 702 623 702 c 0
 654 702 667 701 687 696 c 0
 795 670 874 584 874 453 c 0
 874 393 860 344 837 298 c 0
 808 241 759 182 699 132 c 0
 592 47 483 8 483 7 c 0
 483 6 531 -9 558 -17 c 0
 625 -36 681 -46 726 -46 c 0x9e
 750 -46 753 -45 757 -38 c 0
 759 -36 761 -31 762 -27 c 0
 773 8 832 47 878 50 c 2
 890 50 l 1x4e
 898 46 905 42 905 33 c 0
 905 30 905 27 904 24 c 0
 891 -25 843 -75 777 -109 c 0
 744 -127 706 -139 670 -145 c 0
 662 -146 645 -146 628 -146 c 0x8e
 611 -146 593 -146 583 -145 c 0
 526 -139 486 -130 385 -98 c 0
 314 -76 284 -68 249 -61 c 0
 217 -54 192 -51 164 -50 c 0
 144 -50 131 -46 131 -33 c 0
 131 -29 132 -25 135 -19 c 0
 147 7 188 36 227 47 c 0
 236 49 239 49 265 50 c 0
 433 57 556 96 641 180 c 0
 694 234 723 294 729 367 c 0
 730 374 730 380 730 387 c 0
 730 513 646 602 520 602 c 0
 473 602 438 592 405 576 c 0
 334 540 279 465 266 385 c 0
 265 377 264 366 264 355 c 0
 264 262 325 209 413 203 c 1
 420 203 l 2x6e
 457 203 523 213 568 222 c 0x1e
EndSplineSet
EndChar

StartChar: R
Encoding: 82 82 29
Width: 990
GlyphClass: 2
Flags: MW
HStem: -17 101<677 802> 586 100<449 575 449 575>
VStem: 309 140<582 585 585 585> 699 143<493 576>
LayerCount: 2
Fore
SplineSet
187 -17 m 0
 171 -17 159 -13 159 0 c 0
 159 5 162 13 170 31 c 0
 252 214 296 388 309 575 c 1
 309 585 l 1
 304 585 l 2
 301 585 291 584 282 584 c 0
 232 579 190 568 179 557 c 0
 174 552 167 538 164 528 c 0
 161 518 161 516 156 509 c 0
 138 482 94 455 59 449 c 0
 53 448 48 447 43 447 c 0
 29 447 20 452 20 465 c 0
 20 468 21 473 22 478 c 0
 31 509 49 537 76 565 c 0
 103 591 137 615 173 632 c 0
 232 662 304 680 385 685 c 0
 395 685 449 686 505 686 c 2
 575 686 l 2
 663 686 731 684 782 658 c 0
 808 645 823 631 834 611 c 0
 841 596 842 587 842 565 c 0
 842 548 842 544 840 533 c 0
 831 493 814 460 785 426 c 0
 749 383 693 344 632 318 c 2
 619 312 l 1
 626 302 l 2
 637 285 646 268 669 224 c 0
 680 202 692 178 696 172 c 0
 723 121 747 93 768 86 c 0
 772 85 778 84 784 84 c 0
 820 84 843 96 867 115 c 0
 895 138 930 153 957 153 c 0
 970 153 981 147 981 136 c 0
 981 133 980 130 979 126 c 0
 975 115 964 102 946 87 c 0
 868 23 767 -17 684 -17 c 0
 670 -17 660 -16 654 -14 c 0
 629 -5 609 10 590 36 c 0
 573 58 564 73 535 130 c 0
 500 198 491 214 477 234 c 0
 468 246 454 260 446 265 c 0
 440 270 431 273 421 274 c 0
 410 274 400 279 400 291 c 0
 400 297 400 298 403 304 c 0
 415 330 456 360 495 371 c 0
 503 373 508 373 525 374 c 0
 596 378 657 393 681 436 c 0
 692 455 699 483 699 503 c 0
 699 536 679 557 646 568 c 0
 608 580 552 586 471 586 c 2
 449 586 l 1
 449 582 l 2
 448 579 447 569 446 559 c 0
 432 431 398 296 348 165 c 0
 330 118 302 55 296 45 c 0
 276 16 223 -16 187 -17 c 0
EndSplineSet
EndChar

StartChar: S
Encoding: 83 83 30
Width: 696
GlyphClass: 2
Flags: MW
HStem: -16 99<247 376> 603 100<427.5 565>
VStem: 25 145<107 197> 204 144<467 543 476 543> 518 144<177.5 264.5>
LayerCount: 2
Fore
SplineSet
203 290 m 0
 221 290 229 287 231 274 c 0
 231 265 229 258 221 248 c 0
 212 236 197 223 180 213 c 0
 170 207 170 205 170 189 c 0
 170 178 170 175 172 169 c 0
 178 150 189 139 216 121 c 0
 252 97 306 83 356 83 c 0
 396 83 430 89 459 100 c 0
 486 109 496 118 507 141 c 0
 514 156 518 170 518 185 c 0
 518 204 512 223 499 240 c 0
 476 271 435 294 360 320 c 0
 309 337 279 352 253 372 c 0
 229 391 213 414 206 440 c 0
 204 448 204 451 204 467 c 2
 204 476 l 2
 204 490 206 497 211 513 c 0
 229 568 282 621 357 658 c 0
 414 687 464 703 539 703 c 0
 591 703 647 697 674 683 c 0
 703 671 721 649 721 612 c 0
 721 597 718 580 714 569 c 0
 701 541 647 502 601 499 c 0
 584 499 573 502 573 516 c 0
 573 525 577 534 577 543 c 0
 577 557 573 570 564 579 c 0
 559 585 556 586 539 590 c 0
 509 598 472 603 444 603 c 0
 411 603 372 593 364 583 c 0
 354 573 348 553 348 533 c 0
 348 512 354 498 363 485 c 0
 372 473 387 460 404 450 c 0
 422 439 436 433 473 420 c 0
 554 392 606 363 633 330 c 0
 653 304 662 280 662 249 c 0
 662 167 595 90 490 37 c 0
 422 2 354 -16 257 -16 c 0
 237 -16 218 -16 208 -15 c 0
 149 -5 103 13 64 46 c 0
 40 64 25 88 25 126 c 0
 25 144 29 160 39 181 c 0
 62 226 107 264 160 281 c 0
 178 287 187 289 203 290 c 0
EndSplineSet
EndChar

StartChar: T
Encoding: 84 84 31
Width: 644
GlyphClass: 2
Flags: MW
HStem: 580 105<304 304 304 436 207 304> 700 20G<920.5 930.5>
LayerCount: 2
Fore
SplineSet
61 462 m 0
 46 462 38 466 38 479 c 0
 38 483 39 488 41 494 c 0
 54 544 98 594 163 634 c 0
 203 658 245 674 289 683 c 2
 304 685 l 1
 837 687 l 1
 846 693 l 2
 864 704 888 714 907 718 c 0
 910 719 918 720 923 720 c 0
 938 720 947 715 947 702 c 0
 946 685 929 661 904 640 c 0
 868 610 819 588 776 583 c 0
 771 582 765 582 764 581 c 0
 763 581 717 580 662 580 c 2
 563 580 l 1
 514 385 l 2
 487 278 463 183 461 174 c 0
 446 124 426 72 402 24 c 0
 394 7 390 0 385 -6 c 0
 362 -35 314 -65 266 -69 c 0
 251 -69 242 -62 242 -50 c 0
 243 -46 245 -40 253 -25 c 0
 275 22 293 68 307 115 c 2
 364 340 l 2
 392 456 417 552 418 554 c 0
 421 562 429 573 436 580 c 1
 207 580 l 1
 202 573 198 566 194 552 c 0
 193 546 191 540 190 537 c 0
 177 512 135 481 95 468 c 0
 82 464 72 462 61 462 c 0
EndSplineSet
EndChar

StartChar: U
Encoding: 85 85 32
Width: 715
GlyphClass: 2
Flags: MW
HStem: -17 100<89.5 211> 666 20G<217.5 241.5 729.5 754.5>
VStem: -10 145<88 191> 139 144<562 650> 466 144<12.5 105>
LayerCount: 2
Fore
SplineSet
15 552 m 0
 -1 552 -10 558 -10 570 c 0
 -10 580 -3 591 10 605 c 0
 55 646 138 679 202 685 c 0
 204 686 213 686 222 686 c 0
 261 686 283 669 283 631 c 0
 283 605 274 570 254 521 c 0
 243 493 238 482 213 425 c 0
 170 326 155 287 144 246 c 0
 138 223 135 201 135 181 c 0
 135 147 143 119 161 101 c 0
 172 91 185 83 205 83 c 0
 217 83 234 91 259 106 c 0
 363 176 506 350 583 499 c 0
 593 520 633 622 634 624 c 0
 654 654 711 686 748 686 c 0
 761 686 771 679 771 669 c 0
 771 657 756 613 738 574 c 0
 731 558 729 552 713 506 c 0
 683 421 652 316 630 229 c 0
 618 182 613 147 610 105 c 0
 610 88 612 86 617 78 c 1
 641 90 l 2
 674 107 687 111 706 112 c 0
 723 112 733 106 733 94 c 0
 733 79 725 72 714 60 c 0
 697 43 686 36 633 10 c 0
 579 -17 563 -23 532 -24 c 0
 491 -24 466 -7 466 32 c 0
 466 43 467 59 469 74 c 0
 473 114 484 164 500 225 c 1
 399 117 249 -17 102 -17 c 0
 77 -17 72 -15 53 -5 c 0
 12 15 -10 58 -10 118 c 0
 -10 150 -4 182 10 225 c 0
 24 266 37 299 76 389 c 0
 112 469 123 499 132 528 c 0
 137 543 139 557 139 567 c 0
 139 581 133 587 123 587 c 0
 113 587 96 581 88 577 c 0
 50 557 35 552 15 552 c 0
EndSplineSet
EndChar

StartChar: V
Encoding: 86 86 33
Width: 737
GlyphClass: 2
Flags: MW
HStem: 666 21G
VStem: 241 140<134 134 134 139.5> 689 85<464.5 584>
LayerCount: 2
Fore
SplineSet
50 589 m 0
 35 589 25 596 25 608 c 0
 25 635 74 674 119 684 c 0
 127 686 131 686 148 686 c 0
 208 682 246 660 280 618 c 0
 327 560 357 467 371 339 c 0
 377 290 379 250 380 184 c 2
 381 134 l 1
 399 148 l 2
 496 221 577 297 631 366 c 0
 656 397 677 430 686 454 c 0
 689 460 689 462 689 467 c 0
 685 505 642 528 600 532 c 0
 581 532 576 545 576 567 c 0
 576 606 595 651 618 674 c 0
 628 683 631 685 641 685 c 2
 649 685 l 2
 727 685 774 623 774 545 c 0
 774 525 771 503 765 479 c 0
 732 346 631 209 461 66 c 0
 402 17 327 -38 280 -66 c 0
 265 -75 261 -77 255 -77 c 0
 237 -77 237 -49 237 -23 c 0
 241 20 241 48 241 109 c 0
 241 170 241 191 237 235 c 0
 224 409 182 523 115 569 c 0
 99 580 75 587 50 589 c 0
EndSplineSet
EndChar

StartChar: W
Encoding: 87 87 34
Width: 1169
GlyphClass: 2
Flags: MW
HStem: 589 97<40 163>
VStem: 209 136<189 203 189 309.5> 622 156 1121 85<470 587.5>
LayerCount: 2
Fore
SplineSet
25 607 m 0
 25 637 86 686 142 686 c 0
 184 686 204 677 232 658 c 0
 294 617 332 521 343 375 c 0
 345 348 347 312 347 275 c 0
 347 251 346 226 345 203 c 2
 345 189 l 1
 352 196 358 204 373 221 c 0
 451 314 523 413 587 516 c 0
 603 542 629 585 629 587 c 0
 629 589 622 605 622 607 c 0
 622 637 683 682 732 686 c 1
 744 686 l 2
 747 684 755 680 757 678 c 0
 758 675 769 652 778 630 c 0
 838 490 882 337 904 183 c 0
 907 165 908 158 910 151 c 1
 925 169 l 2
 1002 257 1062 340 1097 407 c 0
 1107 427 1113 441 1118 456 c 0
 1121 464 1121 466 1121 474 c 0
 1119 507 1093 529 1059 532 c 0
 1041 532 1036 546 1036 568 c 0
 1036 587 1038 597 1045 616 c 0
 1057 653 1074 676 1097 686 c 1
 1109 686 l 2
 1175 683 1206 624 1206 551 c 0
 1206 539 1205 527 1204 519 c 0
 1197 468 1176 408 1144 345 c 0
 1094 246 1008 127 897 7 c 0
 870 -22 824 -69 817 -73 c 0
 812 -75 808 -77 804 -77 c 0
 801 -77 799 -76 797 -75 c 0
 788 -70 786 -61 783 -26 c 0
 773 114 748 245 710 373 c 0
 696 419 668 501 665 501 c 0
 664 501 658 490 650 476 c 0
 546 302 421 136 280 -15 c 0
 248 -50 229 -69 223 -73 c 0
 219 -75 214 -77 210 -77 c 0
 194 -77 191 -58 191 -40 c 0
 191 -33 191 -26 192 -20 c 0
 204 33 209 152 209 217 c 0
 209 402 174 527 108 571 c 0
 93 581 66 589 45 589 c 0
 35 589 25 596 25 607 c 0
EndSplineSet
EndChar

StartChar: X
Encoding: 88 88 35
Width: 817
GlyphClass: 2
Flags: MW
HStem: 1 99<561 675.5> 586 100<341 454 341 454>
VStem: 56 144<44 126> 441 143<280.5 362> 762 144<560 645>
LayerCount: 2
Fore
SplineSet
265 560 m 0
 250 560 243 567 243 577 c 0
 243 609 293 654 350 673 c 0
 379 683 405 686 447 686 c 0
 461 686 475 685 478 685 c 0
 491 683 511 673 522 663 c 0
 541 646 555 616 562 576 c 0
 563 570 567 536 570 501 c 2
 577 437 l 2
 577 436 718 516 756 551 c 0
 761 557 762 558 762 562 c 0
 762 578 748 584 730 586 c 0
 721 587 715 591 712 596 c 0
 710 602 710 606 712 613 c 0
 722 642 781 686 834 686 c 0
 871 686 906 663 906 627 c 0
 906 611 899 593 885 574 c 0
 875 560 851 536 834 522 c 0
 788 484 719 439 614 379 c 2
 584 362 l 1
 584 357 l 2
 586 354 602 186 603 183 c 0
 610 135 622 100 671 100 c 0
 680 100 680 100 687 104 c 0
 704 115 730 126 754 126 c 0
 769 126 778 121 778 107 c 0
 777 94 768 78 752 62 c 0
 720 31 674 9 626 2 c 0
 615 1 606 1 578 1 c 0
 544 1 542 1 535 3 c 0
 509 11 490 27 477 53 c 0
 462 81 460 96 449 201 c 0
 445 245 441 280 441 281 c 1
 440 281 396 257 357 233 c 0
 279 188 226 153 206 135 c 0
 201 129 200 128 200 124 c 0
 200 119 204 111 208 107 c 0
 221 99 252 102 252 82 c 0
 252 72 246 61 232 47 c 0
 212 27 183 10 155 3 c 0
 148 1 144 1 129 1 c 2
 120 1 l 2
 83 1 56 28 56 60 c 0
 56 77 63 93 77 113 c 0
 87 126 111 150 128 164 c 0
 182 209 269 264 414 345 c 0
 433 355 434 356 433 359 c 2
 433 359 422 493 414 522 c 0
 408 547 399 564 387 575 c 0
 379 583 367 586 350 586 c 2
 341 586 l 1
 332 580 l 2
 313 570 293 560 265 560 c 0
EndSplineSet
EndChar

StartChar: Y
Encoding: 89 89 36
Width: 759
GlyphClass: 2
Flags: MW
HStem: -164 134<139 218> 666 20G<203.5 247 668.5 706.5>
VStem: 366 137 718 79<482.5 553.5>
LayerCount: 2
Fore
SplineSet
73 555 m 0
 58 555 49 561 49 573 c 0
 49 584 56 596 71 612 c 0
 111 650 168 686 239 686 c 0
 255 686 271 684 283 681 c 0
 315 673 351 651 376 624 c 0
 396 604 415 574 430 542 c 0
 460 480 482 391 494 290 c 0
 498 253 503 191 503 173 c 0
 503 169 503 165 504 165 c 0
 506 165 538 197 556 218 c 0
 617 282 674 361 707 445 c 0
 712 459 718 480 718 485 c 0
 718 526 671 552 628 552 c 0
 613 552 607 574 607 590 c 0
 607 624 629 671 658 685 c 0
 661 686 666 686 671 686 c 0
 742 686 784 636 795 577 c 0
 797 568 797 562 797 545 c 0
 797 516 794 497 783 460 c 0
 753 357 691 250 602 146 c 0
 530 63 441 -18 352 -81 c 0
 293 -122 237 -152 203 -161 c 0
 195 -163 185 -164 176 -164 c 0
 102 -164 54 -114 40 -56 c 0
 38 -46 36 -38 36 -29 c 0
 36 18 69 67 95 67 c 0
 103 67 111 58 114 44 c 0
 121 18 133 0 154 -12 c 0
 172 -23 197 -30 216 -30 c 0
 220 -30 224 -30 227 -29 c 0
 243 -25 275 -10 305 7 c 2
 361 44 l 1
 367 49 l 1
 367 54 l 2
 367 57 367 73 366 89 c 0
 360 258 335 389 292 475 c 0
 277 505 262 526 243 546 c 0
 216 572 193 583 156 588 c 1
 146 581 l 2
 121 564 95 555 73 555 c 0
EndSplineSet
EndChar

StartChar: Z
Encoding: 90 90 37
Width: 818
GlyphClass: 2
Flags: MW
HStem: 1 105<445.5 627> 6 107<157 260> 329 86<361 506 361 506 441 546 441 522> 574 111
LayerCount: 2
Fore
SplineSet
622 574 m 2x70
 571 576 471 579 420 579 c 2
 397 579 l 2
 365 579 357 577 351 550 c 0
 337 511 292 483 253 470 c 0
 240 465 231 463 218 462 c 0
 202 462 194 467 194 478 c 0
 194 482 195 487 197 492 c 0
 210 534 242 570 275 597 c 0
 336 646 412 678 484 685 c 1
 509 685 l 2
 566 685 703 680 755 680 c 0
 781 680 796 681 812 684 c 0
 820 685 826 686 831 686 c 0
 843 686 853 680 853 669 c 0
 853 659 848 651 826 626 c 0
 771 564 702 494 641 437 c 2
 619 415 l 2
 620 415 630 414 642 414 c 0
 670 413 676 412 684 407 c 0
 693 402 697 396 697 388 c 0
 697 385 696 382 695 378 c 0
 687 354 650 323 607 323 c 0
 603 323 600 323 598 324 c 0
 594 326 576 328 546 329 c 2
 522 329 l 1
 517 325 l 2
 474 286 358 190 289 136 c 2
 260 113 l 1x70
 318 112 l 2
 382 110 526 109 587 106 c 2
 627 106 l 1
 639 125 650 145 656 170 c 0
 670 209 749 253 788 253 c 0
 800 253 811 248 811 237 c 0
 811 233 810 228 808 221 c 0
 793 167 753 110 710 77 c 0
 664 38 610 12 560 3 c 0
 547 1 546 1 484 1 c 0xb0
 407 1 238 6 177 6 c 0
 137 6 116 5 95 2 c 0
 88 2 77 1 71 0 c 0
 55 0 46 5 46 17 c 0
 46 24 50 33 58 44 c 0
 66 53 73 60 106 84 c 0
 203 158 295 232 383 307 c 2
 408 329 l 1
 361 329 l 1
 314 330 l 2
 304 334 297 340 297 350 c 0
 297 355 299 360 302 366 c 0
 312 387 341 408 368 413 c 0
 375 415 385 415 441 415 c 2
 506 415 l 1
 647 555 l 1
 664 574 l 1
 622 574 l 2x70
EndSplineSet
EndChar

StartChar: uniEFFD
Encoding: 61437 61437 39
Width: 500
GlyphClass: 2
Flags: MW
HStem: 0 100<0 100 0 100 400 500>
VStem: 0 100<0 100 0 100> 400 100<0 100 0 100>
LayerCount: 2
Fore
SplineSet
0 0 m 1
 0 100 l 1
 100 100 l 1
 100 0 l 1
 0 0 l 1
400 0 m 1
 400 100 l 1
 500 100 l 1
 500 0 l 1
 400 0 l 1
EndSplineSet
EndChar

StartChar: uniEFFE
Encoding: 61438 61438 40
Width: 500
GlyphClass: 2
Flags: MW
HStem: 0 100<0 100 0 100 400 500>
VStem: 0 100<0 100 0 100>
LayerCount: 2
Fore
SplineSet
0 0 m 1
 0 100 l 1
 100 100 l 1
 100 0 l 1
 0 0 l 1
400 0 m 1
 400 100 l 1
 500 100 l 1
 500 0 l 1
 400 0 l 1
EndSplineSet
EndChar

StartChar: uniEFFF
Encoding: 61439 61439 41
Width: 100
GlyphClass: 2
Flags: MW
HStem: 0 100<0 100 0 100>
VStem: 0 100<0 100 0 100>
LayerCount: 2
Fore
SplineSet
0 0 m 1
 0 100 l 1
 100 100 l 1
 100 0 l 1
 0 0 l 1
EndSplineSet
EndChar
